<mxfile host="app.diagrams.net" modified="2023-05-13T11:02:00.130Z" agent="Mozilla/5.0 (Windows NT 10.0; Win64; x64) AppleWebKit/537.36 (KHTML, like Gecko) Chrome/113.0.0.0 Safari/537.36" etag="jKDhJy7xi3oTLkCu3wuH" version="21.2.9" type="device">
  <diagram name="Página-1" id="LLpl9M3kf54_KNy09nVX">
    <mxGraphModel dx="1050" dy="541" grid="1" gridSize="10" guides="1" tooltips="1" connect="1" arrows="1" fold="1" page="1" pageScale="1" pageWidth="827" pageHeight="1169" math="0" shadow="0">
      <root>
        <mxCell id="0" />
        <mxCell id="1" parent="0" />
        <mxCell id="e3hL3mZ5CSM-tdaOdM1n-6" value="SOCIO" style="shape=umlActor;verticalLabelPosition=bottom;verticalAlign=top;html=1;outlineConnect=0;" vertex="1" parent="1">
          <mxGeometry x="70" y="200" width="90" height="120" as="geometry" />
        </mxCell>
        <mxCell id="e3hL3mZ5CSM-tdaOdM1n-24" value="reserva &lt;br&gt;clases" style="ellipse;whiteSpace=wrap;html=1;aspect=fixed;" vertex="1" parent="1">
          <mxGeometry x="360" y="220" width="80" height="80" as="geometry" />
        </mxCell>
        <mxCell id="e3hL3mZ5CSM-tdaOdM1n-36" value="GIMNASIO" style="shape=umlActor;verticalLabelPosition=bottom;verticalAlign=top;html=1;outlineConnect=0;" vertex="1" parent="1">
          <mxGeometry x="630" y="200" width="90" height="120" as="geometry" />
        </mxCell>
        <mxCell id="e3hL3mZ5CSM-tdaOdM1n-38" value="publica clases" style="ellipse;whiteSpace=wrap;html=1;aspect=fixed;" vertex="1" parent="1">
          <mxGeometry x="500" y="220" width="80" height="80" as="geometry" />
        </mxCell>
        <mxCell id="e3hL3mZ5CSM-tdaOdM1n-23" value="log-in en la aplicación web" style="ellipse;whiteSpace=wrap;html=1;aspect=fixed;" vertex="1" parent="1">
          <mxGeometry x="220" y="220" width="80" height="80" as="geometry" />
        </mxCell>
        <mxCell id="e3hL3mZ5CSM-tdaOdM1n-42" value="consulta clases" style="ellipse;whiteSpace=wrap;html=1;aspect=fixed;" vertex="1" parent="1">
          <mxGeometry x="360" y="50" width="80" height="80" as="geometry" />
        </mxCell>
        <mxCell id="e3hL3mZ5CSM-tdaOdM1n-43" value="" style="endArrow=classic;html=1;rounded=0;" edge="1" parent="1" source="e3hL3mZ5CSM-tdaOdM1n-6">
          <mxGeometry width="50" height="50" relative="1" as="geometry">
            <mxPoint x="320" y="280" as="sourcePoint" />
            <mxPoint x="220" y="260" as="targetPoint" />
          </mxGeometry>
        </mxCell>
        <mxCell id="e3hL3mZ5CSM-tdaOdM1n-44" value="" style="endArrow=classic;html=1;rounded=0;entryX=1;entryY=0.5;entryDx=0;entryDy=0;" edge="1" parent="1" source="e3hL3mZ5CSM-tdaOdM1n-36" target="e3hL3mZ5CSM-tdaOdM1n-38">
          <mxGeometry width="50" height="50" relative="1" as="geometry">
            <mxPoint x="320" y="280" as="sourcePoint" />
            <mxPoint x="370" y="230" as="targetPoint" />
          </mxGeometry>
        </mxCell>
        <mxCell id="e3hL3mZ5CSM-tdaOdM1n-45" value="anula&amp;nbsp;&lt;br&gt;reserva" style="ellipse;whiteSpace=wrap;html=1;aspect=fixed;" vertex="1" parent="1">
          <mxGeometry x="360" y="390" width="80" height="80" as="geometry" />
        </mxCell>
        <mxCell id="e3hL3mZ5CSM-tdaOdM1n-46" value="" style="endArrow=classic;html=1;rounded=0;entryX=-0.025;entryY=0.647;entryDx=0;entryDy=0;entryPerimeter=0;exitX=1;exitY=0.5;exitDx=0;exitDy=0;" edge="1" parent="1" source="e3hL3mZ5CSM-tdaOdM1n-23" target="e3hL3mZ5CSM-tdaOdM1n-42">
          <mxGeometry width="50" height="50" relative="1" as="geometry">
            <mxPoint x="320" y="270" as="sourcePoint" />
            <mxPoint x="370" y="220" as="targetPoint" />
          </mxGeometry>
        </mxCell>
        <mxCell id="e3hL3mZ5CSM-tdaOdM1n-47" value="" style="endArrow=classic;html=1;rounded=0;entryX=0;entryY=0.5;entryDx=0;entryDy=0;" edge="1" parent="1" target="e3hL3mZ5CSM-tdaOdM1n-24">
          <mxGeometry width="50" height="50" relative="1" as="geometry">
            <mxPoint x="300" y="260" as="sourcePoint" />
            <mxPoint x="370" y="220" as="targetPoint" />
            <Array as="points" />
          </mxGeometry>
        </mxCell>
        <mxCell id="e3hL3mZ5CSM-tdaOdM1n-48" value="" style="endArrow=classic;html=1;rounded=0;entryX=0;entryY=0.25;entryDx=0;entryDy=0;entryPerimeter=0;exitX=1;exitY=0.5;exitDx=0;exitDy=0;" edge="1" parent="1" source="e3hL3mZ5CSM-tdaOdM1n-23" target="e3hL3mZ5CSM-tdaOdM1n-45">
          <mxGeometry width="50" height="50" relative="1" as="geometry">
            <mxPoint x="320" y="270" as="sourcePoint" />
            <mxPoint x="370" y="220" as="targetPoint" />
          </mxGeometry>
        </mxCell>
        <mxCell id="e3hL3mZ5CSM-tdaOdM1n-49" value="" style="endArrow=none;dashed=1;html=1;rounded=0;entryX=0.305;entryY=0.013;entryDx=0;entryDy=0;entryPerimeter=0;exitX=0.985;exitY=0.778;exitDx=0;exitDy=0;exitPerimeter=0;" edge="1" parent="1" source="e3hL3mZ5CSM-tdaOdM1n-42" target="e3hL3mZ5CSM-tdaOdM1n-38">
          <mxGeometry width="50" height="50" relative="1" as="geometry">
            <mxPoint x="310" y="290" as="sourcePoint" />
            <mxPoint x="360" y="240" as="targetPoint" />
          </mxGeometry>
        </mxCell>
        <mxCell id="e3hL3mZ5CSM-tdaOdM1n-50" value="" style="endArrow=none;dashed=1;html=1;rounded=0;entryX=0;entryY=0.5;entryDx=0;entryDy=0;" edge="1" parent="1" source="e3hL3mZ5CSM-tdaOdM1n-24" target="e3hL3mZ5CSM-tdaOdM1n-38">
          <mxGeometry width="50" height="50" relative="1" as="geometry">
            <mxPoint x="310" y="290" as="sourcePoint" />
            <mxPoint x="360" y="240" as="targetPoint" />
          </mxGeometry>
        </mxCell>
        <mxCell id="e3hL3mZ5CSM-tdaOdM1n-52" value="" style="endArrow=none;dashed=1;html=1;rounded=0;entryX=0;entryY=1;entryDx=0;entryDy=0;" edge="1" parent="1" source="e3hL3mZ5CSM-tdaOdM1n-45" target="e3hL3mZ5CSM-tdaOdM1n-38">
          <mxGeometry width="50" height="50" relative="1" as="geometry">
            <mxPoint x="310" y="290" as="sourcePoint" />
            <mxPoint x="360" y="240" as="targetPoint" />
          </mxGeometry>
        </mxCell>
      </root>
    </mxGraphModel>
  </diagram>
</mxfile>
